<mxfile host="65bd71144e">
    <diagram id="JMPGWfpAVOPdn3NZSDA-" name="Seite-1">
        <mxGraphModel dx="994" dy="538" grid="1" gridSize="10" guides="1" tooltips="1" connect="1" arrows="1" fold="1" page="1" pageScale="1" pageWidth="827" pageHeight="1169" math="0" shadow="0">
            <root>
                <mxCell id="0"/>
                <mxCell id="1" parent="0"/>
                <mxCell id="17" style="edgeStyle=none;html=1;entryX=0;entryY=0.5;entryDx=0;entryDy=0;entryPerimeter=0;" parent="1" source="11" target="12" edge="1">
                    <mxGeometry relative="1" as="geometry"/>
                </mxCell>
                <mxCell id="19" style="edgeStyle=none;html=1;startArrow=none;startFill=0;" parent="1" source="11" target="18" edge="1">
                    <mxGeometry relative="1" as="geometry"/>
                </mxCell>
                <mxCell id="11" value="Server/API" style="rounded=0;whiteSpace=wrap;html=1;strokeColor=default;strokeWidth=3;" parent="1" vertex="1">
                    <mxGeometry x="354" y="320" width="120" height="60" as="geometry"/>
                </mxCell>
                <mxCell id="24" style="edgeStyle=none;html=1;entryX=0.5;entryY=0;entryDx=0;entryDy=0;startArrow=none;startFill=0;endArrow=none;endFill=0;" parent="1" source="12" target="23" edge="1">
                    <mxGeometry relative="1" as="geometry"/>
                </mxCell>
                <mxCell id="12" value="Database&lt;br&gt;sqld" style="shape=cylinder3;whiteSpace=wrap;html=1;boundedLbl=1;backgroundOutline=1;size=15;" parent="1" vertex="1">
                    <mxGeometry x="600" y="310" width="80" height="100" as="geometry"/>
                </mxCell>
                <mxCell id="15" style="edgeStyle=none;html=1;entryX=0;entryY=0.25;entryDx=0;entryDy=0;startArrow=classic;startFill=1;exitX=0.5;exitY=1;exitDx=0;exitDy=0;" parent="1" source="13" target="11" edge="1">
                    <mxGeometry relative="1" as="geometry"/>
                </mxCell>
                <mxCell id="13" value="Desktop Client" style="rounded=0;whiteSpace=wrap;html=1;strokeColor=default;strokeWidth=1;" parent="1" vertex="1">
                    <mxGeometry x="40" y="130" width="120" height="60" as="geometry"/>
                </mxCell>
                <mxCell id="16" style="edgeStyle=none;html=1;entryX=0;entryY=0.75;entryDx=0;entryDy=0;startArrow=classic;startFill=1;exitX=0.5;exitY=0;exitDx=0;exitDy=0;" parent="1" source="14" target="11" edge="1">
                    <mxGeometry relative="1" as="geometry">
                        <mxPoint x="340" y="160" as="targetPoint"/>
                    </mxGeometry>
                </mxCell>
                <mxCell id="14" value="CLI" style="rounded=0;whiteSpace=wrap;html=1;strokeColor=default;strokeWidth=1;" parent="1" vertex="1">
                    <mxGeometry x="40" y="490" width="120" height="60" as="geometry"/>
                </mxCell>
                <mxCell id="26" style="edgeStyle=none;html=1;entryX=0;entryY=0.5;entryDx=0;entryDy=0;startArrow=none;startFill=0;endArrow=none;endFill=0;" parent="1" source="18" target="25" edge="1">
                    <mxGeometry relative="1" as="geometry"/>
                </mxCell>
                <mxCell id="18" value="FileStore&lt;br&gt;S3" style="shape=cylinder3;whiteSpace=wrap;html=1;boundedLbl=1;backgroundOutline=1;size=15;strokeColor=default;strokeWidth=1;" parent="1" vertex="1">
                    <mxGeometry x="384" y="60" width="60" height="80" as="geometry"/>
                </mxCell>
                <mxCell id="23" value="&lt;u&gt;&lt;b&gt;FileUpload&lt;/b&gt;&lt;br&gt;&lt;/u&gt;file_id: guid&lt;br&gt;token: string&lt;br&gt;downloaded: bool" style="shape=process;whiteSpace=wrap;html=1;backgroundOutline=1;strokeColor=default;strokeWidth=1;align=left;" parent="1" vertex="1">
                    <mxGeometry x="555" y="530" width="170" height="80" as="geometry"/>
                </mxCell>
                <mxCell id="25" value="&lt;u style=&quot;font-weight: bold;&quot;&gt;File&lt;/u&gt;&lt;br&gt;filename: guid" style="shape=process;whiteSpace=wrap;html=1;backgroundOutline=1;strokeColor=default;strokeWidth=1;align=left;" parent="1" vertex="1">
                    <mxGeometry x="550" y="70" width="120" height="60" as="geometry"/>
                </mxCell>
            </root>
        </mxGraphModel>
    </diagram>
</mxfile>